<svg id="svg" xmlns="http://www.w3.org/2000/svg" xmlns:xlink="http://www.w3.org/1999/xlink" width="400" height="400" viewBox="0, 0, 400,400"><g id="svgg"><path id="path0" d="M196.678 8.000 C 187.346 30.033,177.234 41.924,160.681 50.332 C 121.063 70.454,115.329 105.532,146.839 135.008 C 161.954 149.147,163.026 148.623,154.603 131.205 C 141.920 104.978,145.696 89.596,169.076 72.257 C 191.586 55.563,199.795 40.152,198.732 16.588 C 198.343 7.965,197.748 5.475,196.678 8.000 M218.990 64.377 C 215.003 72.558,213.004 74.350,192.969 87.703 C 172.359 101.439,170.995 124.865,189.898 140.447 C 198.645 147.657,199.310 147.205,194.472 137.333 C 186.268 120.593,189.777 108.931,206.911 95.995 C 219.105 86.788,224.424 76.792,223.653 64.532 L 223.111 55.923 218.990 64.377 M102.140 151.111 C 23.016 152.240,23.109 152.194,25.613 188.444 C 30.311 256.471,62.622 325.616,98.581 344.596 L 107.556 349.333 175.111 349.333 L 242.667 349.333 251.889 344.471 C 256.961 341.796,265.119 335.600,270.018 330.701 C 277.990 322.729,279.401 321.976,283.462 323.520 C 290.095 326.042,296.183 323.011,300.209 315.183 C 307.094 301.796,317.995 294.800,343.487 287.409 C 382.090 276.218,396.200 262.325,399.256 232.501 C 403.357 192.468,371.962 166.510,333.778 178.364 L 325.333 180.985 325.333 174.849 C 325.333 167.760,322.047 160.626,316.442 155.551 C 311.830 151.375,218.787 149.447,102.140 151.111 M200.632 201.912 C 201.262 202.595,200.857 203.484,199.731 203.889 C 183.991 209.542,168.623 228.891,164.320 248.471 C 154.553 292.911,125.054 301.999,125.453 260.444 C 125.710 233.646,147.054 207.857,174.903 200.696 C 181.033 199.120,198.830 199.961,200.632 201.912 M368.661 206.062 C 373.932 211.333,374.222 212.342,374.222 225.368 C 374.222 248.813,369.160 253.984,336.095 264.307 C 324.798 267.834,313.356 271.828,310.667 273.183 C 304.742 276.169,304.745 276.210,309.985 261.548 C 312.299 255.075,316.002 241.778,318.213 232.000 C 320.425 222.222,322.493 213.258,322.808 212.080 C 323.397 209.883,335.182 203.266,343.111 200.681 C 351.891 197.819,362.692 200.094,368.661 206.062 M223.210 224.900 C 235.211 256.325,203.726 297.555,165.778 300.110 C 152.915 300.977,152.300 299.836,161.112 291.460 C 167.702 285.195,174.311 272.630,177.518 260.267 C 178.507 256.453,180.213 249.888,181.309 245.677 C 187.184 223.110,216.899 208.376,223.210 224.900 M2.737 367.556 C 6.854 377.410,13.634 383.576,27.556 390.127 C 49.454 400.430,45.705 400.195,179.556 399.631 L 303.111 399.111 315.984 393.077 C 328.531 387.197,343.090 374.449,348.232 364.842 L 350.347 360.889 175.150 360.889 L -0.048 360.889 2.737 367.556 " stroke="none" fill="#3a2d32" fill-rule="evenodd"></path></g></svg>